<svg xmlns="http://www.w3.org/2000/svg">
  <symbol id="logo-mark" viewBox="0 0 24 24" fill="none" stroke="currentColor" stroke-width="1.8" stroke-linecap="round" stroke-linejoin="round">
    <path d="M4 6.5h16" />
    <path d="M6 4.5v15" />
    <path d="M18 4.5v15" />
    <path d="M4 17.5h16" />
    <path d="M9 9h6" />
    <path d="M9 13h6" />
  </symbol>

  <symbol id="icon-docs" viewBox="0 0 24 24" fill="none" stroke="currentColor" stroke-width="1.8" stroke-linecap="round" stroke-linejoin="round">
    <path d="M6 4h9l3 3v13H6z" />
    <path d="M15 4v4h4" />
    <path d="M9 12h6" />
    <path d="M9 16h6" />
  </symbol>

  <symbol id="icon-layers" viewBox="0 0 24 24" fill="none" stroke="currentColor" stroke-width="1.8" stroke-linecap="round" stroke-linejoin="round">
    <path d="m12 4 8 4-8 4-8-4z" />
    <path d="m4 12 8 4 8-4" />
    <path d="m4 16 8 4 8-4" />
  </symbol>

  <symbol id="icon-api" viewBox="0 0 24 24" fill="none" stroke="currentColor" stroke-width="1.8" stroke-linecap="round" stroke-linejoin="round">
    <path d="M8 8 4 12l4 4" />
    <path d="m16 8 4 4-4 4" />
    <path d="m14 5-4 14" />
  </symbol>

  <symbol id="icon-arrow" viewBox="0 0 24 24" fill="none" stroke="currentColor" stroke-width="1.8" stroke-linecap="round" stroke-linejoin="round">
    <path d="M5 12h14" />
    <path d="m13 6 6 6-6 6" />
  </symbol>

  <symbol id="icon-check" viewBox="0 0 24 24" fill="none" stroke="currentColor" stroke-width="1.8" stroke-linecap="round" stroke-linejoin="round">
    <path d="M20 6 9 17l-5-5" />
  </symbol>

  <symbol id="icon-bird" viewBox="0 0 24 24" fill="none" stroke="currentColor" stroke-width="1.8" stroke-linecap="round" stroke-linejoin="round">
    <path d="M5 12c4-1 6-4 8-8 1 4 3 6 6 7-3 2-5 4-6 8-2-3-5-5-8-7z" />
    <path d="M14 8h4" />
    <path d="M10 15 7 20" />
  </symbol>

  <symbol id="icon-snake" viewBox="0 0 24 24" fill="none" stroke="currentColor" stroke-width="1.8" stroke-linecap="round" stroke-linejoin="round">
    <path d="M5 16c0-3 3-5 7-5h3a3 3 0 1 0 0-6H9" />
    <path d="M9 5 6 8l3 3" />
    <path d="M12 16c0 2-2 3-5 3" />
  </symbol>

  <symbol id="icon-map" viewBox="0 0 24 24" fill="none" stroke="currentColor" stroke-width="1.8" stroke-linecap="round" stroke-linejoin="round">
    <path d="m4 6 5-2 6 2 5-2v14l-5 2-6-2-5 2z" />
    <path d="M9 4v14" />
    <path d="M15 6v14" />
  </symbol>

  <symbol id="icon-art" viewBox="0 0 24 24" fill="none" stroke="currentColor" stroke-width="1.8" stroke-linecap="round" stroke-linejoin="round">
    <path d="M7 4h10v16H7z" />
    <path d="M9 15 12 11l3 4" />
    <path d="M10 8h.01" />
  </symbol>

  <symbol id="icon-cards" viewBox="0 0 24 24" fill="none" stroke="currentColor" stroke-width="1.8" stroke-linecap="round" stroke-linejoin="round">
    <path d="M8 5h10v14H8z" />
    <path d="M6 8H4v12h10v-2" />
    <path d="M11 9h4" />
    <path d="M11 13h4" />
  </symbol>

  <symbol id="icon-thread" viewBox="0 0 24 24" fill="none" stroke="currentColor" stroke-width="1.8" stroke-linecap="round" stroke-linejoin="round">
    <circle cx="8" cy="8" r="3" />
    <circle cx="16" cy="16" r="3" />
    <path d="M10 10 14 14" />
    <path d="M13 7h4" />
    <path d="M7 17h4" />
  </symbol>

  <symbol id="icon-moon" viewBox="0 0 24 24" fill="none" stroke="currentColor" stroke-width="1.8" stroke-linecap="round" stroke-linejoin="round">
    <path d="M18 15.5A7 7 0 0 1 8.5 6 8 8 0 1 0 18 15.5z" />
  </symbol>

  <symbol id="icon-book" viewBox="0 0 24 24" fill="none" stroke="currentColor" stroke-width="1.8" stroke-linecap="round" stroke-linejoin="round">
    <path d="M5 5.5A2.5 2.5 0 0 1 7.5 3H20v16H7.5A2.5 2.5 0 0 0 5 21z" />
    <path d="M5 5.5V21" />
    <path d="M9 7h7" />
  </symbol>

  <symbol id="icon-leaf" viewBox="0 0 24 24" fill="none" stroke="currentColor" stroke-width="1.8" stroke-linecap="round" stroke-linejoin="round">
    <path d="M5 19c8 0 13-5 14-14-9 1-14 6-14 14z" />
    <path d="M5 19 15 9" />
  </symbol>

  <symbol id="icon-bowl" viewBox="0 0 24 24" fill="none" stroke="currentColor" stroke-width="1.8" stroke-linecap="round" stroke-linejoin="round">
    <path d="M4 11h16a8 8 0 0 1-16 0z" />
    <path d="M7 19h10" />
    <path d="M8 7c0-1 1-1 1-2" />
    <path d="M12 7c0-1 1-1 1-2" />
    <path d="M16 7c0-1 1-1 1-2" />
  </symbol>

  <symbol id="icon-alert" viewBox="0 0 24 24" fill="none" stroke="currentColor" stroke-width="1.8" stroke-linecap="round" stroke-linejoin="round">
    <path d="M12 4 3 20h18z" />
    <path d="M12 9v5" />
    <path d="M12 17h.01" />
  </symbol>

  <symbol id="icon-calendar" viewBox="0 0 24 24" fill="none" stroke="currentColor" stroke-width="1.8" stroke-linecap="round" stroke-linejoin="round">
    <path d="M5 5h14v15H5z" />
    <path d="M8 3v4" />
    <path d="M16 3v4" />
    <path d="M5 9h14" />
    <path d="M8 13h3" />
    <path d="M13 13h3" />
  </symbol>

  <symbol id="icon-quote" viewBox="0 0 24 24" fill="none" stroke="currentColor" stroke-width="1.8" stroke-linecap="round" stroke-linejoin="round">
    <path d="M9 7H5v6h4v4l3-4V7z" />
    <path d="M19 7h-4v6h4v4l3-4V7z" />
  </symbol>

  <symbol id="icon-spark" viewBox="0 0 24 24" fill="none" stroke="currentColor" stroke-width="1.8" stroke-linecap="round" stroke-linejoin="round">
    <path d="M12 3v5" />
    <path d="M12 16v5" />
    <path d="M3 12h5" />
    <path d="M16 12h5" />
    <path d="m6 6 3 3" />
    <path d="m15 15 3 3" />
    <path d="m18 6-3 3" />
    <path d="m9 15-3 3" />
  </symbol>

  <symbol id="icon-zodiac" viewBox="0 0 24 24" fill="none" stroke="currentColor" stroke-width="1.8" stroke-linecap="round" stroke-linejoin="round">
    <circle cx="12" cy="12" r="8" />
    <path d="M12 4v16" />
    <path d="M4 12h16" />
    <path d="m7 7 10 10" />
    <path d="m17 7-10 10" />
  </symbol>

  <symbol id="icon-shield" viewBox="0 0 24 24" fill="none" stroke="currentColor" stroke-width="1.8" stroke-linecap="round" stroke-linejoin="round">
    <path d="M12 3 5 6v6c0 4 3 7 7 9 4-2 7-5 7-9V6z" />
    <path d="m9 12 2 2 4-5" />
  </symbol>

  <symbol id="icon-database" viewBox="0 0 24 24" fill="none" stroke="currentColor" stroke-width="1.8" stroke-linecap="round" stroke-linejoin="round">
    <ellipse cx="12" cy="5" rx="7" ry="3" />
    <path d="M5 5v6c0 2 3 3 7 3s7-1 7-3V5" />
    <path d="M5 11v6c0 2 3 3 7 3s7-1 7-3v-6" />
  </symbol>

  <symbol id="icon-gauge" viewBox="0 0 24 24" fill="none" stroke="currentColor" stroke-width="1.8" stroke-linecap="round" stroke-linejoin="round">
    <path d="M5 18a8 8 0 1 1 14 0" />
    <path d="M12 18l4-6" />
    <path d="M8 18h8" />
  </symbol>

  <symbol id="icon-access" viewBox="0 0 24 24" fill="none" stroke="currentColor" stroke-width="1.8" stroke-linecap="round" stroke-linejoin="round">
    <circle cx="12" cy="5" r="2" />
    <path d="M5 9h14" />
    <path d="M12 9v12" />
    <path d="m8 21 4-7 4 7" />
  </symbol>
</svg>
